<?xml version="1.0" standalone="no"?><!DOCTYPE svg PUBLIC "-//W3C//DTD SVG 1.1//EN" "http://www.w3.org/Graphics/SVG/1.1/DTD/svg11.dtd"><svg t="1591628374711" class="icon" viewBox="0 0 1024 1024" version="1.1" xmlns="http://www.w3.org/2000/svg" p-id="21582" xmlns:xlink="http://www.w3.org/1999/xlink" width="48" height="48"><defs><style type="text/css"></style></defs><path d="M512 0.6656C229.0176 0.6656 0.6656 230.144 0.6656 512S230.144 1023.3344 512 1023.3344s511.3344-229.4784 511.3344-511.3344S794.9824 0.6656 512 0.6656z m180.48 539.1872l-254.0032 255.1296a38.656 38.656 0 0 1-27.8528 11.1104 39.0144 39.0144 0 0 1-27.8528-66.8672L610.048 512 383.8976 288.0512c-15.616-15.5648-15.616-40.0896 0-54.5792 15.5648-15.5648 40.0896-15.5648 54.5792 0l254.0032 251.8016a36.9664 36.9664 0 0 1 11.1616 27.8528c0 8.9088-3.3792 18.944-11.1616 26.7264z" fill="#4d97ff" p-id="21583"></path></svg>